<?xml version="1.0" encoding="UTF-8" standalone="no"?>
<svg
   xmlns:dc="http://purl.org/dc/elements/1.1/"
   xmlns:cc="http://creativecommons.org/ns#"
   xmlns:rdf="http://www.w3.org/1999/02/22-rdf-syntax-ns#"
   xmlns:svg="http://www.w3.org/2000/svg"
   xmlns="http://www.w3.org/2000/svg"
   xmlns:sodipodi="http://sodipodi.sourceforge.net/DTD/sodipodi-0.dtd"
   xmlns:inkscape="http://www.inkscape.org/namespaces/inkscape"
   version="1.1"
   id="svg2"
   xml:space="preserve"
   width="962.10931"
   height="953.44"
   viewBox="0 0 962.10931 953.44"
   sodipodi:docname="Balloon 12.ai"><metadata
     id="metadata8"><rdf:RDF><cc:Work
         rdf:about=""><dc:format>image/svg+xml</dc:format><dc:type
           rdf:resource="http://purl.org/dc/dcmitype/StillImage" /></cc:Work></rdf:RDF></metadata><defs
     id="defs6"><clipPath
       clipPathUnits="userSpaceOnUse"
       id="clipPath20"><path
         d="M 0,715.08 H 721.582 V 0 H 0 Z"
         id="path18" /></clipPath><clipPath
       clipPathUnits="userSpaceOnUse"
       id="clipPath44"><path
         d="m 100.046,603.238 h 95.119 V 481.02 h -95.119 z"
         id="path42" /></clipPath><clipPath
       clipPathUnits="userSpaceOnUse"
       id="clipPath68"><path
         d="m 212.577,564.496 h 92.367 V 437.509 h -92.367 z"
         id="path66" /></clipPath><clipPath
       clipPathUnits="userSpaceOnUse"
       id="clipPath92"><path
         d="m 153.395,553.762 h 93.402 V 428.293 h -93.402 z"
         id="path90" /></clipPath><clipPath
       clipPathUnits="userSpaceOnUse"
       id="clipPath116"><path
         d="m 170.49,628.948 h 92.592 V 502.275 H 170.49 Z"
         id="path114" /></clipPath><clipPath
       clipPathUnits="userSpaceOnUse"
       id="clipPath164"><path
         d="m 116.853,671.337 h 92.983 V 545.221 h -92.983 z"
         id="path162" /></clipPath><clipPath
       clipPathUnits="userSpaceOnUse"
       id="clipPath188"><path
         d="m 103.437,521.608 h 95.119 V 399.392 h -95.119 z"
         id="path186" /></clipPath><clipPath
       clipPathUnits="userSpaceOnUse"
       id="clipPath212"><path
         d="m 494.408,612.539 h 93.017 V 487.62 h -93.017 z"
         id="path210" /></clipPath><clipPath
       clipPathUnits="userSpaceOnUse"
       id="clipPath236"><path
         d="m 548.499,510.072 h 97.723 V 391.597 h -97.723 z"
         id="path234" /></clipPath><clipPath
       clipPathUnits="userSpaceOnUse"
       id="clipPath260"><path
         d="m 499.311,540.715 h 95.257 V 418.631 h -95.257 z"
         id="path258" /></clipPath><clipPath
       clipPathUnits="userSpaceOnUse"
       id="clipPath284"><path
         d="m 560.601,585.966 h 97.084 V 466.464 h -97.084 z"
         id="path282" /></clipPath><clipPath
       clipPathUnits="userSpaceOnUse"
       id="clipPath332"><path
         d="m 549.669,653.001 h 96.117 V 532.075 h -96.117 z"
         id="path330" /></clipPath><clipPath
       clipPathUnits="userSpaceOnUse"
       id="clipPath356"><path
         d="m 442.543,549.411 h 93.02 V 424.495 h -93.02 z"
         id="path354" /></clipPath><clipPath
       clipPathUnits="userSpaceOnUse"
       id="clipPath452"><path
         d="m 294.135,285.055 h 129.29 v -82.223 h -129.29 z"
         id="path450" /></clipPath><clipPath
       clipPathUnits="userSpaceOnUse"
       id="clipPath624"><path
         d="M 34.6797,697.115 H 694.484 v -430 H 34.6797 Z"
         id="path622" /></clipPath></defs><sodipodi:namedview
     pagecolor="#ffffff"
     bordercolor="#666666"
     borderopacity="1"
     objecttolerance="10"
     gridtolerance="10"
     guidetolerance="10"
     inkscape:pageopacity="0"
     inkscape:pageshadow="2"
     inkscape:window-width="640"
     inkscape:window-height="480"
     id="namedview4" /><g
     id="g10"
     inkscape:groupmode="layer"
     inkscape:label="Balloon 12"
     transform="matrix(1.3333333,0,0,-1.3333333,0,953.44)"><path
       d="M 0,0 H 721.581 V 715.08 H 0 Z"
       style="fill:#ffffff;fill-opacity:1;fill-rule:nonzero;stroke:none"
       id="path12" /><g
       id="g14"><g
         id="g16"
         clip-path="url(#clipPath20)"><g
           id="g22"
           transform="translate(0,255.3145)"><path
             d="m 0,0 c 0,0 22.247,16.791 37.724,-10.512 0,0 10.881,7.053 18.861,0 0,0 -1.692,13.198 11.85,10.467 0,0 -1.21,30.486 23.213,34.127 24.424,3.639 35.064,-12.969 33.372,-15.016 0,0 7.012,11.375 15.717,11.602 0,0 -14.509,31.625 13.3,40.725 0,0 -3.385,11.149 11.607,14.561 0,0 -6.529,31.625 35.306,32.761 0,0 4.755,20.934 29.904,10.619 0,0 41.271,13.953 49.653,-18.809 0,0 16.767,16.381 36.757,-7.888 0,0 27.081,9.101 37.4,-14.56 0,0 14.834,7.887 18.056,-11.526 0,0 32.243,12.131 40.625,-21.842 0,0 16.363,-11.072 8.866,-28.135 0,0 16.927,-18.656 14.268,-26.847 0,0 18.619,15.925 29.985,-0.911 0,0 45.22,18.657 62.147,-34.127 0,0 33.854,16.155 48.122,-12.285 0,0 27.809,12.514 41.351,-2.502 13.541,-15.015 12.333,-23.207 12.333,-23.207 0,0 14.267,3.867 16.926,-10.009 0,0 18.137,17.291 39.417,3.185 0,0 11.365,16.266 34.822,12.854 V -255.314 H 0 Z"
             style="fill:#a2ddf2;fill-opacity:1;fill-rule:nonzero;stroke:none"
             id="path24" /></g><g
           id="g26"
           transform="translate(0,200.8711)"><path
             d="m 0,0 c 0,0 22.247,13.21 37.724,-8.271 0,0 10.881,5.549 18.861,0 0,0 -1.692,10.383 11.85,8.236 0,0 -1.21,23.985 23.213,26.849 24.424,2.863 35.064,-10.203 33.372,-11.813 0,0 7.012,8.949 15.717,9.127 0,0 -14.509,24.882 13.3,32.041 0,0 -3.385,8.77 11.607,11.455 0,0 -6.529,24.882 35.306,25.775 0,0 4.755,16.47 29.904,8.356 0,0 41.271,10.977 49.653,-14.798 0,0 16.767,12.888 36.757,-6.207 0,0 27.081,7.161 37.4,-11.455 0,0 14.834,6.206 18.056,-9.068 0,0 32.243,9.544 40.625,-17.184 0,0 16.363,-8.712 8.866,-22.136 0,0 16.927,-14.678 14.268,-21.122 0,0 18.619,12.529 29.985,-0.717 0,0 45.22,14.679 62.147,-26.849 0,0 33.854,12.71 48.122,-9.665 0,0 27.809,9.844 41.351,-1.969 13.541,-11.814 12.333,-18.258 12.333,-18.258 0,0 14.267,3.042 16.926,-7.876 0,0 18.137,13.605 39.417,2.507 0,0 11.365,12.797 34.822,10.112 v -147.941 l -721.582,0 z"
             style="fill:#b8e8f4;fill-opacity:1;fill-rule:nonzero;stroke:none"
             id="path28" /></g><g
           id="g30"
           transform="translate(413.6812,247.5977)"><path
             d="m 0,0 c 0,0 1.018,-8.236 3.406,-7.281 2.389,0.957 28.586,32.82 28.586,32.82 l 11.549,3.494 7.884,-2.388 -4.062,-7.168 -5.972,-8.639 c 0,0 -23.716,-36.715 -44.262,-39.342 l -11.4,15.014 -8.601,9.492 17.679,7.469 z"
             style="fill:#e5e4ba;fill-opacity:1;fill-rule:nonzero;stroke:none"
             id="path32" /></g><g
           id="g34"
           transform="translate(309.4683,261.8125)"><path
             d="m 0,0 -3.249,-2.805 -20.656,20.659 -4.986,9.607 h -11.397 v -6.402 c 0,0 0.357,-6.413 7.835,-10.684 0,0 15.083,-37.732 25.883,-39.879 l 26.826,7.113 v 16.028 l -9.14,9.258 z"
             style="fill:#e5e4ba;fill-opacity:1;fill-rule:nonzero;stroke:none"
             id="path36" /></g><g
           id="g38"><g
             id="g40" /><g
             id="g60"><g
               clip-path="url(#clipPath44)"
               opacity="0.800003"
               id="g58"><g
                 transform="translate(176.3379,481.374)"
                 id="g48"><path
                   d="m 0,0 c 0,0 1.678,1.315 2.335,3.816 0.659,2.501 1.269,3.788 -0.463,4.959 -1.731,1.167 -29.652,0.461 -50.43,17.808 -20.78,17.343 -48.081,56.9 -4.484,87.176 43.598,30.273 98.723,-28.635 57.1,-104.081 0,0 -0.561,-1.023 0.521,-2.289 1.079,-1.265 7.5,-1.561 7.233,-2.324 C 11.55,4.301 5.003,0.705 2.745,0.254 0.49,-0.196 -0.715,-0.717 0,0"
                   style="fill:#ef7f09;fill-opacity:1;fill-rule:nonzero;stroke:none"
                   id="path46" /></g><g
                 transform="translate(145.7979,591.7832)"
                 id="g52"><path
                   d="m 0,0 c 5.795,0.588 11.678,-2.289 16.55,-5.101 5.069,-2.928 10.692,-7.444 12.215,-13.348 1.302,-5.047 8.91,-2.275 7.619,2.728 C 34.458,-8.272 27.791,-2.65 21.538,1.267 15.146,5.274 7.138,8.84 -0.601,8.058 -5.792,7.538 -5.189,-0.52 0,0"
                   style="fill:#e6e6e6;fill-opacity:1;fill-rule:nonzero;stroke:none"
                   id="path50" /></g><g
                 transform="translate(182.2881,561.2666)"
                 id="g56"><path
                   d="M 0,0 C 4.911,1.759 2.189,9.36 -2.722,7.601 -7.637,5.84 -4.915,-1.76 0,0"
                   style="fill:#e6e6e6;fill-opacity:1;fill-rule:nonzero;stroke:none"
                   id="path54" /></g></g></g></g><g
           id="g62"><g
             id="g64" /><g
             id="g84"><g
               clip-path="url(#clipPath68)"
               opacity="0.800003"
               id="g82"><g
                 transform="translate(267.3394,438.0098)"
                 id="g72"><path
                   d="m 0,0 c 0,0 1.965,0.819 3.27,3.053 1.3,2.232 2.235,3.313 0.879,4.903 -1.358,1.587 -28.453,8.375 -43.832,30.647 -15.385,22.265 -31.115,67.681 18.989,85.195 C 29.408,141.313 66.774,69.81 6.496,8.24 6.496,8.24 5.683,7.406 6.384,5.897 7.087,4.389 13.191,2.387 12.733,1.724 12.274,1.057 5.008,-0.657 2.709,-0.489 0.417,-0.319 -0.884,-0.501 0,0"
                   style="fill:#e0116a;fill-opacity:1;fill-rule:nonzero;stroke:none"
                   id="path70" /></g><g
                 transform="translate(267.4316,552.5649)"
                 id="g76"><path
                   d="m 0,0 c 5.742,-0.983 10.643,-5.328 14.581,-9.338 4.106,-4.178 8.311,-10.033 8.2,-16.13 -0.091,-5.21 7.98,-4.573 8.073,0.593 0.137,7.688 -4.784,14.891 -9.759,20.337 C 16.005,1.037 9.24,6.611 1.578,7.926 -3.567,8.81 -5.14,0.887 0,0"
                   style="fill:#e6e6e6;fill-opacity:1;fill-rule:nonzero;stroke:none"
                   id="path74" /></g><g
                 transform="translate(294.4316,513.4028)"
                 id="g80"><path
                   d="M 0,0 C 5.205,0.382 4.613,8.434 -0.591,8.053 -5.797,7.67 -5.203,-0.385 0,0"
                   style="fill:#e6e6e6;fill-opacity:1;fill-rule:nonzero;stroke:none"
                   id="path78" /></g></g></g></g><g
           id="g86"><g
             id="g88" /><g
             id="g108"><g
               clip-path="url(#clipPath92)"
               opacity="0.800003"
               id="g106"><g
                 transform="translate(218.3477,428.644)"
                 id="g96"><path
                   d="m 0,0 c 0,0 1.849,1.057 2.86,3.437 1.013,2.38 1.806,3.569 0.26,4.975 -1.544,1.404 -29.275,4.746 -47.327,24.909 -18.054,20.166 -39.355,63.25 8.163,86.908 C 11.468,143.884 57.502,77.626 5.413,8.988 5.413,8.988 4.71,8.06 5.596,6.653 6.483,5.24 12.79,4.021 12.417,3.308 12.046,2.586 5.05,-0.027 2.75,-0.147 0.452,-0.267 -0.813,-0.607 0,0"
                   style="fill:#f6ef15;fill-opacity:1;fill-rule:nonzero;stroke:none"
                   id="path94" /></g><g
                 transform="translate(204.0854,542.312)"
                 id="g100"><path
                   d="m 0,0 c 5.819,-0.261 11.223,-3.955 15.638,-7.441 4.592,-3.631 9.501,-8.913 10.156,-14.976 0.562,-5.181 8.488,-3.534 7.931,1.601 C 32.9,-13.172 27.115,-6.641 21.495,-1.86 15.747,3.027 8.339,7.712 0.571,8.058 -4.645,8.29 -5.212,0.229 0,0"
                   style="fill:#e6e6e6;fill-opacity:1;fill-rule:nonzero;stroke:none"
                   id="path98" /></g><g
                 transform="translate(235.7788,506.8379)"
                 id="g104"><path
                   d="M 0,0 C 5.116,1.031 3.521,8.947 -1.594,7.915 -6.711,6.883 -5.117,-1.033 0,0"
                   style="fill:#e6e6e6;fill-opacity:1;fill-rule:nonzero;stroke:none"
                   id="path102" /></g></g></g></g><g
           id="g110"><g
             id="g112" /><g
             id="g132"><g
               clip-path="url(#clipPath116)"
               opacity="0.800003"
               id="g130"><g
                 transform="translate(227.8569,502.6792)"
                 id="g120"><path
                   d="M 0,0 C 0,0 1.942,0.882 3.168,3.156 4.4,5.43 5.302,6.539 3.892,8.084 2.487,9.629 -24.807,15.546 -40.894,37.314 -56.983,59.081 -74.151,103.971 -24.63,123.078 24.89,142.179 64.519,71.906 6.228,8.443 6.228,8.443 5.443,7.584 6.194,6.1 6.944,4.612 13.11,2.809 12.672,2.129 12.237,1.448 5.028,-0.499 2.729,-0.4 0.428,-0.307 -0.867,-0.527 0,0"
                   style="fill:#8b81be;fill-opacity:1;fill-rule:nonzero;stroke:none"
                   id="path118" /></g><g
                 transform="translate(224.2969,617.1812)"
                 id="g124"><path
                   d="m 0,0 c 5.771,-0.803 10.805,-4.986 14.874,-8.87 4.233,-4.045 8.626,-9.764 8.708,-15.859 0.077,-5.209 8.122,-4.316 8.049,0.848 -0.108,7.692 -5.256,14.734 -10.404,20.019 C 15.964,1.542 9.026,6.902 1.321,7.971 -3.849,8.69 -5.166,0.718 0,0"
                   style="fill:#e6e6e6;fill-opacity:1;fill-rule:nonzero;stroke:none"
                   id="path122" /></g><g
                 transform="translate(252.5322,578.896)"
                 id="g128"><path
                   d="M 0,0 C 5.19,0.548 4.341,8.581 -0.845,8.032 -6.036,7.485 -5.19,-0.547 0,0"
                   style="fill:#e6e6e6;fill-opacity:1;fill-rule:nonzero;stroke:none"
                   id="path126" /></g></g></g></g><g
           id="g134"
           transform="translate(283.8081,277.4395)"><path
             d="m 0,0 -100.134,131.901 0.221,0.164 L 0.219,0.166 Z"
             style="fill:#00a99d;fill-opacity:1;fill-rule:nonzero;stroke:none"
             id="path136" /></g><g
           id="g138"
           transform="translate(283.7983,277.4629)"><path
             d="m 0,0 -105.249,207.666 0.246,0.122 L 0.243,0.121 Z"
             style="fill:#00a99d;fill-opacity:1;fill-rule:nonzero;stroke:none"
             id="path140" /></g><g
           id="g142"
           transform="translate(283.79,277.4746)"><path
             d="m 0,0 -59.974,157.771 0.258,0.101 L 0.256,0.096 Z"
             style="fill:#00a99d;fill-opacity:1;fill-rule:nonzero;stroke:none"
             id="path144" /></g><g
           id="g146"
           transform="translate(284.0552,277.5312)"><path
             d="m 0,0 -0.274,-0.018 -10.194,166.386 0.275,0.016 z"
             style="fill:#00a99d;fill-opacity:1;fill-rule:nonzero;stroke:none"
             id="path148" /></g><g
           id="g150"
           transform="translate(284.0522,277.5527)"><path
             d="m 0,0 -0.266,-0.061 -52.171,233.242 0.269,0.059 z"
             style="fill:#00a99d;fill-opacity:1;fill-rule:nonzero;stroke:none"
             id="path152" /></g><g
           id="g154"
           transform="translate(283.7896,277.4766)"><path
             d="m 0,0 -102.226,276.315 0.256,0.095 L 0.257,0.09 Z"
             style="fill:#00a99d;fill-opacity:1;fill-rule:nonzero;stroke:none"
             id="path156" /></g><g
           id="g158"><g
             id="g160" /><g
             id="g180"><g
               clip-path="url(#clipPath164)"
               opacity="0.800003"
               id="g178"><g
                 transform="translate(178.1987,545.5742)"
                 id="g168"><path
                   d="m 0,0 c 0,0 1.896,0.976 3.011,3.311 1.118,2.327 1.963,3.48 0.479,4.955 -1.478,1.472 -29.032,6.046 -46.161,27.003 -17.133,20.953 -36.483,64.947 12.045,86.455 48.523,21.505 91.543,-46.745 36.431,-112.985 0,0 -0.74,-0.895 0.085,-2.343 C 6.711,4.947 12.958,3.447 12.554,2.749 12.149,2.046 5.045,-0.25 2.743,-0.268 0.442,-0.285 -0.839,-0.568 0,0"
                   style="fill:#1b998c;fill-opacity:1;fill-rule:nonzero;stroke:none"
                   id="path166" /></g><g
                 transform="translate(169.0371,659.7646)"
                 id="g172"><path
                   d="m 0,0 c 5.802,-0.516 11.036,-4.451 15.291,-8.13 4.424,-3.832 9.092,-9.33 9.475,-15.416 0.329,-5.2 8.323,-3.914 7.996,1.242 -0.484,7.677 -5.97,14.46 -11.372,19.485 C 15.866,2.322 8.674,7.335 0.93,8.026 -4.269,8.491 -5.198,0.466 0,0"
                   style="fill:#e6e6e6;fill-opacity:1;fill-rule:nonzero;stroke:none"
                   id="path170" /></g><g
                 transform="translate(199.1147,622.9087)"
                 id="g176"><path
                   d="M 0,0 C 5.155,0.801 3.913,8.781 -1.241,7.98 -6.399,7.18 -5.158,-0.8 0,0"
                   style="fill:#e6e6e6;fill-opacity:1;fill-rule:nonzero;stroke:none"
                   id="path174" /></g></g></g></g><g
           id="g182"><g
             id="g184" /><g
             id="g204"><g
               clip-path="url(#clipPath188)"
               opacity="0.800003"
               id="g202"><g
                 transform="translate(179.7275,399.7461)"
                 id="g192"><path
                   d="m 0,0 c 0,0 1.678,1.313 2.335,3.816 0.66,2.497 1.269,3.788 -0.462,4.959 -1.732,1.166 -29.654,0.461 -50.431,17.806 -20.779,17.343 -48.079,56.902 -4.483,87.175 43.598,30.275 98.724,-28.634 57.1,-104.08 0,0 -0.563,-1.022 0.519,-2.285 C 5.658,6.124 12.079,5.827 11.811,5.064 11.549,4.301 5.004,0.702 2.744,0.254 0.491,-0.195 -0.715,-0.718 0,0"
                   style="fill:#009eee;fill-opacity:1;fill-rule:nonzero;stroke:none"
                   id="path190" /></g><g
                 transform="translate(149.1865,510.1562)"
                 id="g196"><path
                   d="m 0,0 c 5.796,0.584 11.682,-2.29 16.55,-5.103 5.07,-2.927 10.693,-7.443 12.216,-13.348 1.305,-5.044 8.911,-2.271 7.618,2.729 C 34.459,-8.274 27.792,-2.651 21.541,1.266 15.146,5.273 7.137,8.84 -0.601,8.059 -5.792,7.533 -5.188,-0.524 0,0"
                   style="fill:#e6e6e6;fill-opacity:1;fill-rule:nonzero;stroke:none"
                   id="path194" /></g><g
                 transform="translate(185.6772,479.6348)"
                 id="g200"><path
                   d="M 0,0 C 4.912,1.759 2.188,9.364 -2.723,7.603 -7.637,5.844 -4.915,-1.76 0,0"
                   style="fill:#e6e6e6;fill-opacity:1;fill-rule:nonzero;stroke:none"
                   id="path198" /></g></g></g></g><g
           id="g206"><g
             id="g208" /><g
             id="g228"><g
               clip-path="url(#clipPath212)"
               opacity="0.800003"
               id="g226"><g
                 transform="translate(513.8804,491.7729)"
                 id="g216"><path
                   d="m 0,0 c 0,0 2.128,-0.138 4.283,1.29 2.158,1.424 3.472,1.978 2.96,4.005 -0.512,2.024 -21.804,20.101 -25.737,46.882 -3.94,26.777 2.059,74.466 54.743,67.991 C 88.928,113.692 90.783,33.035 9.476,4.511 9.476,4.511 8.375,4.123 8.338,2.458 8.301,0.794 12.89,-3.704 12.183,-4.094 11.479,-4.489 4.202,-2.81 2.215,-1.64 0.234,-0.474 -1.012,-0.059 0,0"
                   style="fill:#ef7f09;fill-opacity:1;fill-rule:nonzero;stroke:none"
                   id="path214" /></g><g
                 transform="translate(564.6753,594.4502)"
                 id="g220"><path
                   d="m 0,0 c 4.714,-3.423 7.185,-9.488 8.94,-14.832 1.831,-5.561 3.015,-12.675 0.217,-18.091 -2.392,-4.632 5.126,-7.633 7.497,-3.042 3.531,6.837 2.304,15.471 0.249,22.56 C 14.81,-6.16 11.212,1.835 4.924,6.409 0.704,9.481 -4.215,3.07 0,0"
                   style="fill:#e6e6e6;fill-opacity:1;fill-rule:nonzero;stroke:none"
                   id="path218" /></g><g
                 transform="translate(571.5503,547.3809)"
                 id="g224"><path
                   d="M 0,0 C 4.835,-1.96 7.87,5.52 3.036,7.482 -1.803,9.444 -4.835,1.962 0,0"
                   style="fill:#e6e6e6;fill-opacity:1;fill-rule:nonzero;stroke:none"
                   id="path222" /></g></g></g></g><g
           id="g230"><g
             id="g232" /><g
             id="g252"><g
               clip-path="url(#clipPath236)"
               opacity="0.800003"
               id="g250"><g
                 transform="translate(552.8423,398.8013)"
                 id="g240"><path
                   d="M 0,0 C 0,0 2.012,-0.699 4.474,0.098 6.93,0.895 8.349,1.078 8.396,3.167 8.44,5.257 -7.24,28.371 -3.868,55.227 -0.504,82.08 18.029,126.426 67.058,106.101 116.09,85.777 96.308,7.562 10.335,1.816 c 0,0 -1.162,-0.081 -1.646,-1.672 C 8.21,-1.45 11.428,-7.009 10.645,-7.197 9.857,-7.39 3.297,-3.828 1.695,-2.171 0.101,-0.517 -0.99,0.214 0,0"
                   style="fill:#e0116a;fill-opacity:1;fill-rule:nonzero;stroke:none"
                   id="path238" /></g><g
                 transform="translate(629.2427,484.1602)"
                 id="g244"><path
                   d="m 0,0 c 3.626,-4.56 4.387,-11.064 4.649,-16.679 0.278,-5.852 -0.487,-13.019 -4.631,-17.492 -3.541,-3.824 2.904,-8.726 6.416,-4.938 5.222,5.644 6.352,14.293 6.271,21.67 C 12.627,-9.891 11.294,-1.228 6.459,4.859 3.21,8.945 -3.242,4.085 0,0"
                   style="fill:#e6e6e6;fill-opacity:1;fill-rule:nonzero;stroke:none"
                   id="path242" /></g><g
                 transform="translate(623.2808,436.9668)"
                 id="g248"><path
                   d="M 0,0 C 4.135,-3.183 9.058,3.215 4.924,6.399 0.789,9.582 -4.135,3.18 0,0"
                   style="fill:#e6e6e6;fill-opacity:1;fill-rule:nonzero;stroke:none"
                   id="path246" /></g></g></g></g><g
           id="g254"><g
             id="g256" /><g
             id="g276"><g
               clip-path="url(#clipPath260)"
               opacity="0.800003"
               id="g274"><g
                 transform="translate(510.0718,424.4604)"
                 id="g264"><path
                   d="M 0,0 C 0,0 2.083,-0.443 4.422,0.658 6.763,1.759 8.146,2.117 7.931,4.196 7.716,6.271 -10.737,27.24 -10.761,54.304 -10.787,81.37 2.038,127.689 53.232,113.67 104.425,99.648 94.6,19.571 10.024,3.097 c 0,0 -1.141,-0.225 -1.419,-1.864 -0.28,-1.645 3.611,-6.755 2.857,-7.041 C 10.703,-6.097 3.746,-3.383 1.953,-1.942 0.159,-0.5 -1.012,0.09 0,0"
                   style="fill:#f6ef15;fill-opacity:1;fill-rule:nonzero;stroke:none"
                   id="path262" /></g><g
                 transform="translate(575.1763,518.7227)"
                 id="g268"><path
                   d="m 0,0 c 4.166,-4.072 5.734,-10.427 6.701,-15.969 1.006,-5.766 1.148,-12.976 -2.403,-17.934 -3.036,-4.237 3.974,-8.29 6.978,-4.091 4.479,6.25 4.515,14.976 3.512,22.286 C 13.757,-8.235 11.354,0.194 5.794,5.629 2.059,9.277 -3.736,3.645 0,0"
                   style="fill:#e6e6e6;fill-opacity:1;fill-rule:nonzero;stroke:none"
                   id="path266" /></g><g
                 transform="translate(575.1694,471.1538)"
                 id="g272"><path
                   d="M 0,0 C 4.504,-2.64 8.588,4.324 4.088,6.963 -0.416,9.604 -4.501,2.639 0,0"
                   style="fill:#e6e6e6;fill-opacity:1;fill-rule:nonzero;stroke:none"
                   id="path270" /></g></g></g></g><g
           id="g278"><g
             id="g280" /><g
             id="g300"><g
               clip-path="url(#clipPath284)"
               opacity="0.800003"
               id="g298"><g
                 transform="translate(566.4956,473.3306)"
                 id="g288"><path
                   d="M 0,0 C 0,0 2.033,-0.637 4.461,0.242 6.896,1.118 8.308,1.344 8.286,3.435 8.269,5.524 -8.142,28.122 -5.634,55.073 -3.126,82.023 13.984,126.937 63.639,108.187 113.294,89.435 96.017,10.628 10.266,2.145 c 0,0 -1.156,-0.116 -1.585,-1.724 -0.434,-1.608 2.965,-7.063 2.182,-7.277 -0.775,-0.218 -7.451,3.135 -9.1,4.74 C 0.113,-0.513 -0.999,0.185 0,0"
                   style="fill:#8b81be;fill-opacity:1;fill-rule:nonzero;stroke:none"
                   id="path286" /></g><g
                 transform="translate(640.1313,561.084)"
                 id="g292"><path
                   d="m 0,0 c 3.771,-4.444 4.738,-10.918 5.183,-16.524 0.462,-5.838 -0.075,-13.03 -4.075,-17.629 -3.412,-3.935 3.182,-8.632 6.567,-4.731 5.048,5.807 5.897,14.488 5.581,21.859 C 12.933,-9.488 11.333,-0.869 6.299,5.062 2.922,9.045 -3.374,3.977 0,0"
                   style="fill:#e6e6e6;fill-opacity:1;fill-rule:nonzero;stroke:none"
                   id="path290" /></g><g
                 transform="translate(635.6763,513.7217)"
                 id="g296"><path
                   d="M 0,0 C 4.237,-3.049 8.955,3.506 4.722,6.553 0.487,9.604 -4.233,3.05 0,0"
                   style="fill:#e6e6e6;fill-opacity:1;fill-rule:nonzero;stroke:none"
                   id="path294" /></g></g></g></g><g
           id="g302"
           transform="translate(458.1323,268.0957)"><path
             d="M 0,0 13.222,165.075 13.495,165.05 0.275,-0.021 Z"
             style="fill:#00a99d;fill-opacity:1;fill-rule:nonzero;stroke:none"
             id="path304" /></g><g
           id="g306"
           transform="translate(458.1401,268.1191)"><path
             d="M 0,0 59.893,224.979 60.155,224.906 0.263,-0.07 Z"
             style="fill:#00a99d;fill-opacity:1;fill-rule:nonzero;stroke:none"
             id="path308" /></g><g
           id="g310"
           transform="translate(458.1421,268.1348)"><path
             d="M 0,0 60.406,157.605 60.665,157.509 0.256,-0.1 Z"
             style="fill:#00a99d;fill-opacity:1;fill-rule:nonzero;stroke:none"
             id="path312" /></g><g
           id="g314"
           transform="translate(458.3784,267.998)"><path
             d="m 0,0 -0.217,0.17 103.266,130.861 0.215,-0.17 z"
             style="fill:#00a99d;fill-opacity:1;fill-rule:nonzero;stroke:none"
             id="path316" /></g><g
           id="g318"
           transform="translate(458.3901,268.0176)"><path
             d="m 0,0 -0.238,0.131 116.509,208.684 0.242,-0.135 z"
             style="fill:#00a99d;fill-opacity:1;fill-rule:nonzero;stroke:none"
             id="path320" /></g><g
           id="g322"
           transform="translate(458.144,268.1348)"><path
             d="m 0,0 107.886,274.155 0.256,-0.1 L 0.251,-0.104 Z"
             style="fill:#00a99d;fill-opacity:1;fill-rule:nonzero;stroke:none"
             id="path324" /></g><g
           id="g326"><g
             id="g328" /><g
             id="g348"><g
               clip-path="url(#clipPath332)"
               opacity="0.800003"
               id="g346"><g
                 transform="translate(558.0464,538.4033)"
                 id="g336"><path
                   d="M 0,0 C 0,0 2.063,-0.534 4.452,0.463 6.835,1.455 8.232,1.75 8.111,3.839 7.99,5.92 -9.51,27.691 -8.318,54.731 -7.133,81.772 7.752,127.472 58.271,111.172 108.781,94.878 95.383,15.32 10.151,2.648 c 0,0 -1.147,-0.173 -1.5,-1.803 C 8.3,-0.782 11.957,-6.064 11.193,-6.313 10.422,-6.568 3.596,-3.548 1.866,-2.026 0.139,-0.506 -1.003,0.136 0,0"
                   style="fill:#1b998c;fill-opacity:1;fill-rule:nonzero;stroke:none"
                   id="path334" /></g><g
                 transform="translate(627.3013,629.6567)"
                 id="g340"><path
                   d="m 0,0 c 3.981,-4.25 5.265,-10.672 5.986,-16.251 0.743,-5.805 0.562,-13.015 -3.21,-17.808 -3.216,-4.097 3.602,-8.464 6.793,-4.402 4.753,6.047 5.184,14.761 4.501,22.107 C 13.381,-8.841 11.354,-0.309 6.04,5.365 2.475,9.176 -3.565,3.811 0,0"
                   style="fill:#e6e6e6;fill-opacity:1;fill-rule:nonzero;stroke:none"
                   id="path338" /></g><g
                 transform="translate(625.1724,582.1333)"
                 id="g344"><path
                   d="M 0,0 C 4.376,-2.837 8.766,3.941 4.39,6.778 0.011,9.619 -4.38,2.84 0,0"
                   style="fill:#e6e6e6;fill-opacity:1;fill-rule:nonzero;stroke:none"
                   id="path342" /></g></g></g></g><g
           id="g350"><g
             id="g352" /><g
             id="g372"><g
               clip-path="url(#clipPath356)"
               opacity="0.800003"
               id="g370"><g
                 transform="translate(462.019,428.6455)"
                 id="g360"><path
                   d="m 0,0 c 0,0 2.126,-0.139 4.284,1.29 2.155,1.423 3.47,1.979 2.958,4.007 -0.513,2.022 -21.805,20.101 -25.74,46.879 -3.938,26.778 2.064,74.466 54.744,67.991 C 88.928,113.693 90.782,33.034 9.473,4.512 c 0,0 -1.101,-0.387 -1.136,-2.05 C 8.298,0.796 12.889,-3.702 12.18,-4.092 11.478,-4.487 4.198,-2.81 2.216,-1.639 0.236,-0.473 -1.013,-0.058 0,0"
                   style="fill:#009eee;fill-opacity:1;fill-rule:nonzero;stroke:none"
                   id="path358" /></g><g
                 transform="translate(512.814,531.3257)"
                 id="g364"><path
                   d="m 0,0 c 4.71,-3.427 7.185,-9.491 8.938,-14.833 1.832,-5.561 3.015,-12.675 0.217,-18.092 -2.388,-4.632 5.13,-7.632 7.499,-3.042 3.527,6.836 2.301,15.473 0.251,22.558 C 14.808,-6.16 11.212,1.836 4.922,6.409 0.7,9.476 -4.22,3.066 0,0"
                   style="fill:#e6e6e6;fill-opacity:1;fill-rule:nonzero;stroke:none"
                   id="path362" /></g><g
                 transform="translate(519.6851,484.252)"
                 id="g368"><path
                   d="M 0,0 C 4.835,-1.96 7.871,5.524 3.036,7.484 -1.8,9.447 -4.836,1.962 0,0"
                   style="fill:#e6e6e6;fill-opacity:1;fill-rule:nonzero;stroke:none"
                   id="path366" /></g></g></g></g><g
           id="g374"
           transform="translate(269.0454,287.3887)"><path
             d="M 0,0 C 0,0 -1.721,14.77 9.703,15.479 21.128,16.187 27.076,5.543 25.041,0.574 23.006,-4.395 18.771,-7.02 16.152,-7.586 14.364,-7.971 1.251,-5.4 0,0"
             style="fill:#eae8ca;fill-opacity:1;fill-rule:nonzero;stroke:none"
             id="path376" /></g><g
           id="g378"
           transform="translate(461.8765,273.2598)"><path
             d="m 0,0 c 0,0 -10.449,-7.336 -13.563,-4.223 -3.111,3.112 -8.447,15.786 -2,21.342 C -9.115,22.678 7.781,18.437 8.67,14 9.561,9.559 7.664,-4.229 -2.727,-7.672 Z"
             style="fill:#eae8ca;fill-opacity:1;fill-rule:nonzero;stroke:none"
             id="path380" /></g><g
           id="g382"
           transform="translate(216.3755,195.3203)"><path
             d="m 0,0 30.942,-38.83 240.86,-30.941 -16.989,34.884 C 254.813,-34.887 83.725,0.607 0,0"
             style="fill:#754c24;fill-opacity:1;fill-rule:nonzero;stroke:none"
             id="path384" /></g><g
           id="g386"
           transform="translate(216.3755,195.3203)"><path
             d="m 0,0 -4.853,-25.613 26.088,-35.664 9.707,23.405 z"
             style="fill:#603813;fill-opacity:1;fill-rule:nonzero;stroke:none"
             id="path388" /></g><g
           id="g390"
           transform="translate(247.3174,157.4482)"><path
             d="M 0,0 240.86,-31.899 233.579,-64.054 -9.707,-23.405 Z"
             style="fill:#603813;fill-opacity:1;fill-rule:nonzero;stroke:none"
             id="path392" /></g><g
           id="g394"
           transform="translate(282.7061,279.3477)"><path
             d="m 0,0 c -0.692,-17.33 0.906,-33.316 -7.596,-49.209 -7.326,-13.701 -18.156,-27.074 -31.63,-35.057 -0.756,-0.451 -0.07,-1.63 0.689,-1.181 13.904,8.238 24.229,21.679 32.12,35.547 C 2.551,-34.137 0.669,-17.402 1.365,0 1.4,0.881 0.035,0.879 0,0"
             style="fill:#00a99d;fill-opacity:1;fill-rule:nonzero;stroke:none"
             id="path396" /></g><g
           id="g398"
           transform="translate(282.1504,279.2266)"><path
             d="m 0,0 c -1.757,-4.869 -1.197,-8.85 0.004,-13.807 1.377,-5.691 0.692,-10.505 -2.245,-15.314 -0.876,-1.432 -1.468,-3.326 -1.646,-4.984 -0.275,-2.561 -0.37,-5.061 -0.384,-7.635 -0.032,-5.754 -2.987,-9.342 -6.49,-13.334 -3.662,-4.176 -5.157,-10.674 -6.958,-15.739 -4.082,-11.476 -2.791,-21.863 -0.49,-33.509 3.022,-15.295 6.601,-32.024 -6.489,-43.713 -0.658,-0.588 0.311,-1.551 0.965,-0.967 19.45,17.373 3.791,43.856 4.446,65.398 0.275,9.028 5.095,22.551 11.015,29.299 3.116,3.555 5.074,5.17 5.369,9.979 0.317,5.162 -0.462,9.435 1.84,14.515 0.86,1.897 2.736,3.538 3.149,5.645 1.612,8.221 -3.753,15.535 -0.769,23.805 C 1.617,0.469 0.297,0.822 0,0"
             style="fill:#00a99d;fill-opacity:1;fill-rule:nonzero;stroke:none"
             id="path400" /></g><g
           id="g402"
           transform="translate(267.1348,216.0527)"><path
             d="m 0,0 c -1.167,-6.266 -6.315,-12.846 -6.167,-19.291 0.158,-6.803 3.496,-12.566 2.988,-19.545 -0.37,-5.092 0.196,-8.945 2.338,-13.562 3.822,-8.241 -2.414,-26.129 -8.766,-31.934 -0.651,-0.596 0.317,-1.559 0.965,-0.967 5.279,4.826 6.01,8.154 7.549,15.141 1.183,5.371 5.059,9.98 2.597,15.724 -1.92,4.485 -3.559,8.288 -3.471,13.239 0.063,3.558 0.471,6.724 -0.186,10.238 -1.148,6.137 -3.418,10.338 -1.277,17.004 1.523,4.736 3.825,8.637 4.747,13.592 C 1.477,0.498 0.162,0.867 0,0"
             style="fill:#00a99d;fill-opacity:1;fill-rule:nonzero;stroke:none"
             id="path404" /></g><g
           id="g406"
           transform="translate(253.7354,130.752)"><path
             d="M 0,0 C 1.381,-1.674 4.121,-1.98 5.009,0.303 5.328,1.123 4.007,1.477 3.692,0.666 3.18,-0.652 1.574,0.229 0.965,0.967 0.405,1.646 -0.555,0.674 0,0"
             style="fill:#00a99d;fill-opacity:1;fill-rule:nonzero;stroke:none"
             id="path408" /></g><g
           id="g410"
           transform="translate(258.3623,132.5547)"><path
             d="m 0,0 c -1.249,-0.998 -3.693,-2.479 -5.102,-1.062 -0.622,0.623 -1.587,-0.344 -0.965,-0.967 2.042,-2.049 5.168,-0.426 7.032,1.062 C 1.653,-0.418 0.681,0.543 0,0"
             style="fill:#00a99d;fill-opacity:1;fill-rule:nonzero;stroke:none"
             id="path412" /></g><g
           id="g414"
           transform="translate(457.1831,269.5176)"><path
             d="m 0,0 c -11.593,-33.352 -12.672,-74.859 2.563,-107.238 0.375,-0.797 1.55,-0.104 1.178,0.689 -15.067,32.02 -13.882,73.225 -2.423,106.186 C 1.607,0.471 0.289,0.826 0,0"
             style="fill:#00a99d;fill-opacity:1;fill-rule:nonzero;stroke:none"
             id="path416" /></g><g
           id="g418"
           transform="translate(457.1831,267.6992)"><path
             d="m 0,0 c -2.243,-5.746 -3.969,-11.592 -4.577,-17.756 -0.728,-7.39 -3.151,-13.389 -5.585,-20.265 -4.642,-13.114 2.291,-25.43 2.252,-38.604 -0.017,-5.262 -0.563,-10.295 0.405,-15.496 1.794,-9.629 5.002,-18.621 5.997,-28.49 0.781,-7.746 1.903,-15.377 2.001,-23.178 0.052,-4.086 -1.241,-26.104 -10.148,-24.979 -0.872,0.11 -0.862,-1.257 0,-1.365 9.294,-1.176 10.04,13.418 11.061,19.66 2.534,15.471 -1.411,34.182 -4.951,49.307 -2.023,8.643 -3.172,15.668 -3.001,24.541 0.146,7.496 -2.099,14.609 -3.481,21.912 -1.975,10.418 2.585,18.738 5.543,28.291 2.665,8.608 2.446,17.467 5.8,26.059 C 1.637,0.457 0.316,0.811 0,0"
             style="fill:#00a99d;fill-opacity:1;fill-rule:nonzero;stroke:none"
             id="path420" /></g><g
           id="g422"
           transform="translate(450.1519,178.2656)"><path
             d="m 0,0 c 2.116,-8.838 3.878,-18.965 4.234,-28.057 0.244,-6.168 -0.765,-12.111 0.241,-18.269 0.9,-5.5 5.838,-43.654 -10.09,-32.492 -0.724,0.505 -1.405,-0.68 -0.69,-1.182 13.019,-9.121 14.511,14.018 13.955,20.91 -0.597,7.41 -2.582,14.6 -2.504,22.063 C 5.277,-24.367 4.291,-12.059 1.317,0.361 1.112,1.219 -0.204,0.854 0,0"
             style="fill:#00a99d;fill-opacity:1;fill-rule:nonzero;stroke:none"
             id="path424" /></g><g
           id="g426"
           transform="translate(444.5132,98.7598)"><path
             d="M 0,0 C 3.348,-0.271 6.277,-2.814 9.014,0.371 9.585,1.035 8.623,2.006 8.049,1.338 5.793,-1.289 2.783,1.141 0,1.365 -0.878,1.437 -0.871,0.072 0,0"
             style="fill:#00a99d;fill-opacity:1;fill-rule:nonzero;stroke:none"
             id="path428" /></g><g
           id="g430"
           transform="translate(445.5366,97.5664)"><path
             d="M 0,0 C 1.469,0.035 2.828,-0.668 4.312,-0.654 5.465,-0.646 6.476,-0.016 7.398,0.604 8.124,1.092 7.441,2.275 6.709,1.783 5.576,1.021 4.621,0.57 3.223,0.777 2.117,0.943 1.139,1.393 0,1.365 -0.879,1.344 -0.881,-0.021 0,0"
             style="fill:#00a99d;fill-opacity:1;fill-rule:nonzero;stroke:none"
             id="path432" /></g><g
           id="g434"
           transform="translate(290.187,191.8145)"><path
             d="m 0,0 -5.255,3.512 v 6.97 c 0,0 10.315,3.942 11.073,4.852 0.758,0.91 25.867,10.01 25.867,10.01 0,0 11.596,2.73 18.573,2.73 6.977,0 29.123,3.033 38.526,0 9.404,-3.031 22.747,-8.189 22.747,-8.189 L 125.489,6.842 135.5,0 l -1.213,-5.135 -7.433,-5.162 h -5.915 L 83.324,6.537 Z"
             style="fill:#3691ad;fill-opacity:1;fill-rule:nonzero;stroke:none"
             id="path436" /></g><g
           id="g438"
           transform="translate(300.1001,204.7246)"><path
             d="m 0,0 c 0,0 -25.481,-27.607 -14.561,-39.135 10.921,-11.525 12.438,-9.402 12.438,-9.402 l 70.983,-8.492 13.727,-8.192 39.489,22.936 c 0,0 -11.276,21.48 -17.079,38.101 L 53.546,19.719 Z"
             style="fill:#033644;fill-opacity:1;fill-rule:nonzero;stroke:none"
             id="path440" /></g><g
           id="g442"
           transform="translate(333.0278,293.9004)"><path
             d="m 0,0 -27.922,-19.104 c 0,0 1.263,-21.839 13.145,-26.845 0,0 -26.341,-43.682 -34.987,-43.682 0,0 -6.825,-9.557 8.191,-13.195 0,0 -12.286,5.459 8.645,13.65 20.931,8.19 138.327,5.004 116.941,-23.207 0,0 16.836,3.641 12.286,12.74 -4.55,9.102 -26.847,30.936 -27.757,43.452 0,0 17.746,5.691 17.291,14.337 l -15.787,27.606 z"
             style="fill:#62b5d6;fill-opacity:1;fill-rule:nonzero;stroke:none"
             id="path444" /></g><g
           id="g446"><g
             id="g448" /><g
             id="g476"><g
               clip-path="url(#clipPath452)"
               opacity="0.600006"
               id="g474"><g
                 transform="translate(321.4248,222.6309)"
                 id="g456"><path
                   d="m 0,0 c -7.545,-0.76 -14.956,-2.314 -22.401,-3.363 -1.651,-2.188 -3.296,-4.268 -4.889,-6.151 6.313,0.582 12.595,1.723 18.884,2.797 14.389,2.463 29.203,3.633 43.797,3.483 23.02,-0.235 45.266,-7.776 66.609,-16.565 -2.005,2.584 -4.289,5.414 -6.609,8.361 C 79.139,-5.236 62.502,-0.197 45.11,1.684 30.084,3.311 14.947,1.502 0,0"
                   style="fill:#ffffff;fill-opacity:1;fill-rule:nonzero;stroke:none"
                   id="path454" /></g><g
                 transform="translate(310.5415,235.7715)"
                 id="g460"><path
                   d="m 0,0 c -1.192,-1.818 -2.473,-3.742 -3.817,-5.715 20.088,1.029 40.099,3.488 60.242,3.498 13.666,0.006 26.243,-2.287 38.383,-6.096 -1.333,2.358 -2.397,4.622 -3.055,6.723 C 83.518,0.719 75.015,2.322 66.041,2.939 44.021,4.451 22.008,1.443 0,0"
                   style="fill:#ffffff;fill-opacity:1;fill-rule:nonzero;stroke:none"
                   id="path458" /></g><g
                 transform="translate(370.6235,254.2305)"
                 id="g464"><path
                   d="m 0,0 c -19.265,1.881 -38.703,-0.418 -58.016,-1.922 1.547,-1.877 3.406,-3.416 5.643,-4.357 0,0 -0.173,-0.287 -0.468,-0.768 16.466,1.248 32.914,2.699 49.448,1.838 14.025,-0.73 26.413,-4.949 38.798,-9.57 2.084,0.922 4.59,2.185 6.839,3.744 -2.929,1.207 -5.858,2.416 -8.81,3.578 C 22.69,-3.236 11.446,-1.117 0,0"
                   style="fill:#ffffff;fill-opacity:1;fill-rule:nonzero;stroke:none"
                   id="path462" /></g><g
                 transform="translate(305.5459,270.9219)"
                 id="g468"><path
                   d="m 0,0 c 0.23,-1.539 0.571,-3.42 1.077,-5.457 19.653,0.244 39.319,0.865 58.809,-2.256 17.81,-2.853 34.329,-9.851 50.57,-17.412 1.378,1.414 2.402,2.979 2.742,4.68 C 97.518,-13.209 81.684,-6.543 64.58,-3.039 43.383,1.305 21.549,0.299 0,0"
                   style="fill:#ffffff;fill-opacity:1;fill-rule:nonzero;stroke:none"
                   id="path466" /></g><g
                 transform="translate(383.8354,280.5352)"
                 id="g472"><path
                   d="m 0,0 c -20.425,5.672 -42.886,4.66 -64.505,3.994 l -8.319,-5.691 c 22.66,0.453 46.518,2.195 68.369,-2.803 10.947,-2.504 21.408,-6.127 31.651,-10.299 l -4.067,7.112 C 15.609,-4.828 7.953,-2.207 0,0"
                   style="fill:#ffffff;fill-opacity:1;fill-rule:nonzero;stroke:none"
                   id="path470" /></g></g></g></g><g
           id="g478"
           transform="translate(427.0981,298.6152)"><path
             d="m 0,0 c -1.052,0.848 -2.136,1.395 -3.202,1.719 6.98,12.914 9.381,26.398 9.381,26.398 0,0 0.101,3.358 1.151,9.26 5.918,33.342 -41.398,47.3 -41.398,47.3 -24.827,9.883 -49.68,-9.374 -49.68,-9.374 -10.737,-8.784 -14.651,-21.599 -17.488,-30.053 -5.016,3.775 -12.294,1.18 -12.707,-8.022 -0.569,-12.835 13.068,-13.874 13.068,-13.874 -1.563,-9.782 0.554,-33.401 30.446,-47.106 30.418,-13.941 52.798,10.141 52.798,10.141 3.122,-5.012 8.247,-5.84 14.118,-3.696 C 2.366,-15.162 5.505,-4.455 0,0"
             style="fill:#fac7ab;fill-opacity:1;fill-rule:nonzero;stroke:none"
             id="path480" /></g><g
           id="g482"
           transform="translate(360.2573,311.8418)"><path
             d="M 0,0 C 0,0 0.176,-0.205 0.461,-0.531 0.778,-0.844 1.051,-1.398 1.633,-1.857 1.9,-2.105 2.197,-2.375 2.491,-2.645 2.764,-2.953 3.193,-3.117 3.533,-3.391 3.904,-3.635 4.252,-3.932 4.697,-4.08 5.115,-4.275 5.537,-4.473 5.96,-4.672 6.414,-4.795 6.863,-4.91 7.303,-5.029 7.742,-5.187 8.2,-5.193 8.641,-5.244 c 0.437,-0.02 0.866,-0.152 1.273,-0.106 0.408,0.03 0.794,0.043 1.161,0.047 0.738,-0.023 1.31,0.219 1.755,0.242 0.441,0.067 0.695,0.104 0.695,0.104 0,0 -0.216,-0.127 -0.597,-0.354 -0.403,-0.171 -0.944,-0.613 -1.711,-0.75 C 10.844,-6.16 10.428,-6.26 9.982,-6.346 9.543,-6.475 9.062,-6.398 8.57,-6.416 8.073,-6.404 7.552,-6.447 7.051,-6.279 6.542,-6.154 6.026,-6.025 5.512,-5.898 5.035,-5.66 4.561,-5.424 4.092,-5.187 3.609,-4.975 3.236,-4.611 2.85,-4.305 2.482,-3.977 2.082,-3.711 1.818,-3.336 1.537,-2.98 1.293,-2.637 1.062,-2.32 0.564,-1.723 0.435,-1.043 0.236,-0.652 0.09,-0.252 0,0 0,0"
             style="fill:#af6a3c;fill-opacity:1;fill-rule:nonzero;stroke:none"
             id="path484" /></g><g
           id="g486"
           transform="translate(381.2905,313.3184)"><path
             d="M 0,0 C 0.033,-0.035 -0.092,1.006 0.841,2.203 1.064,2.508 1.348,2.797 1.702,3.049 2.035,3.328 2.449,3.545 2.896,3.74 3.357,3.875 3.838,4.051 4.369,4.08 4.892,4.146 5.434,4.047 5.975,3.977 6.485,3.793 7.012,3.635 7.447,3.338 7.928,3.098 8.27,2.701 8.614,2.361 8.913,1.982 9.207,1.613 9.363,1.197 9.551,0.803 9.691,0.424 9.73,0.039 9.818,-0.322 9.824,-0.662 9.793,-0.965 9.775,-1.258 9.736,-1.506 9.66,-1.715 9.505,-2.1 9.418,-2.316 9.418,-2.316 c 0,0 -0.105,0.207 -0.293,0.558 -0.07,0.168 -0.199,0.362 -0.346,0.563 -0.127,0.209 -0.275,0.424 -0.47,0.633 C 8.141,-0.338 7.918,-0.137 7.706,0.074 7.503,0.293 7.215,0.449 6.999,0.662 6.721,0.812 6.473,0.996 6.191,1.115 5.934,1.293 5.627,1.334 5.348,1.439 5.053,1.479 4.765,1.584 4.453,1.559 4.144,1.617 3.832,1.555 3.521,1.545 3.229,1.451 2.884,1.473 2.607,1.357 2.325,1.258 2.021,1.197 1.777,1.066 1.506,0.965 1.271,0.84 1.066,0.713 0.846,0.598 0.646,0.484 0.51,0.365 0.199,0.141 0,0 0,0"
             style="fill:#8e410b;fill-opacity:1;fill-rule:nonzero;stroke:none"
             id="path488" /></g><g
           id="g490"
           transform="translate(353.3452,324.791)"><path
             d="M 0,0 C 0.025,-0.033 -0.035,0.916 0.879,1.926 1.096,2.184 1.367,2.428 1.698,2.633 2.018,2.853 2.402,3.03 2.813,3.171 3.234,3.266 3.676,3.39 4.152,3.385 4.627,3.408 5.104,3.291 5.586,3.197 6.031,3 6.497,2.827 6.869,2.536 7.283,2.297 7.57,1.926 7.859,1.602 8.111,1.242 8.355,0.9 8.471,0.52 8.62,0.158 8.723,-0.195 8.734,-0.541 8.834,-1.195 8.707,-1.758 8.566,-2.105 8.404,-2.438 8.311,-2.631 8.311,-2.631 c 0,0 -0.102,0.178 -0.282,0.494 C 7.872,-1.84 7.611,-1.457 7.291,-1.086 7.143,-0.895 6.949,-0.717 6.77,-0.533 6.592,-0.344 6.347,-0.205 6.166,-0.021 5.932,0.117 5.721,0.273 5.492,0.393 5.275,0.551 5.025,0.598 4.796,0.703 4.547,0.754 4.312,0.865 4.043,0.863 3.787,0.937 3.517,0.918 3.25,0.93 2.998,0.879 2.702,0.937 2.453,0.865 2.203,0.809 1.93,0.791 1.703,0.709 1.221,0.586 0.799,0.408 0.502,0.254 0.197,0.1 0,0 0,0"
             style="fill:#8e410b;fill-opacity:1;fill-rule:nonzero;stroke:none"
             id="path492" /></g><g
           id="g494"
           transform="translate(388.9761,327.0801)"><path
             d="M 0,0 C 0.001,-0.041 0.678,0.494 1.932,0.687 2.238,0.712 2.586,0.75 2.953,0.748 3.326,0.771 3.695,0.653 4.09,0.566 4.477,0.459 4.898,0.39 5.27,0.167 5.646,-0.049 6.022,-0.268 6.4,-0.484 6.711,-0.799 7.018,-1.107 7.32,-1.412 7.654,-1.697 7.822,-2.096 8.018,-2.449 8.2,-2.814 8.426,-3.133 8.48,-3.508 8.571,-3.867 8.637,-4.207 8.68,-4.518 8.825,-5.125 8.625,-5.682 8.596,-6.025 8.514,-6.365 8.468,-6.562 8.468,-6.562 c 0,0 -0.099,0.183 -0.273,0.501 -0.193,0.303 -0.285,0.75 -0.622,1.202 -0.159,0.22 -0.31,0.463 -0.452,0.72 -0.129,0.266 -0.398,0.463 -0.572,0.723 -0.204,0.24 -0.377,0.512 -0.64,0.711 -0.231,0.221 -0.472,0.443 -0.712,0.668 -0.272,0.18 -0.549,0.355 -0.818,0.531 C 4.135,-1.279 3.82,-1.186 3.538,-1.053 3.24,-0.955 2.98,-0.717 2.69,-0.672 2.403,-0.605 2.135,-0.5 1.873,-0.414 1.352,-0.199 0.894,-0.236 0.551,-0.125 0.217,-0.051 0,0 0,0"
             style="fill:#ee8200;fill-opacity:1;fill-rule:nonzero;stroke:none"
             id="path496" /></g><g
           id="g498"
           transform="translate(367.0552,337.1001)"><path
             d="m 0,0 c -0.038,-0.016 -0.55,0.765 -1.345,1.636 -0.218,0.21 -0.461,0.421 -0.683,0.665 -0.2,0.266 -0.57,0.38 -0.829,0.614 -0.289,0.203 -0.549,0.459 -0.912,0.562 -0.319,0.16 -0.649,0.32 -0.976,0.48 C -5.098,4.048 -5.456,4.14 -5.802,4.226 -6.146,4.356 -6.51,4.343 -6.857,4.384 -7.206,4.38 -7.56,4.514 -7.88,4.46 -8.204,4.425 -8.526,4.406 -8.83,4.406 -9.45,4.428 -9.911,4.198 -10.306,4.172 c -0.393,-0.059 -0.617,-0.094 -0.617,-0.094 0,0 0.154,0.161 0.422,0.444 0.295,0.233 0.68,0.762 1.331,0.99 0.316,0.149 0.671,0.296 1.058,0.428 0.379,0.18 0.812,0.15 1.258,0.205 0.447,0.023 0.917,0.116 1.38,-0.032 C -5.009,6.01 -4.533,5.897 -4.061,5.793 -3.635,5.561 -3.21,5.329 -2.792,5.102 -2.36,4.885 -2.06,4.519 -1.738,4.211 -1.434,3.884 -1.104,3.6 -0.923,3.231 -0.72,2.884 -0.562,2.529 -0.407,2.217 -0.068,1.619 -0.118,0.975 -0.039,0.608 -0.003,0.216 0,0 0,0"
             style="fill:#ee8200;fill-opacity:1;fill-rule:nonzero;stroke:none"
             id="path500" /></g><g
           id="g502"
           transform="translate(344.7437,314.1641)"><path
             d="m 0,0 c 0,0 21.722,-15.383 42.234,-17.951 0,0 -9.851,-18.373 -26.931,-13.426 C -1.783,-26.43 -2.562,-8.967 0,0"
             style="fill:#a92400;fill-opacity:1;fill-rule:nonzero;stroke:none"
             id="path504" /></g><g
           id="g506"
           transform="translate(350.7817,287.8477)"><path
             d="m 0,0 c 2.349,-2.166 5.386,-3.938 9.265,-5.061 8.367,-2.421 15.001,0.749 19.589,4.618 C 24.87,2.92 19.708,4.863 14.495,4.945 9.287,5.02 4.079,3.234 0,0"
             style="fill:#fd907e;fill-opacity:1;fill-rule:nonzero;stroke:none"
             id="path508" /></g><g
           id="g510"
           transform="translate(401.9009,295.6582)"><path
             d="m 0,0 c -1.125,-1.975 -4.419,-2.219 -7.356,-0.543 -2.94,1.676 -4.413,4.631 -3.284,6.605 1.124,1.975 4.42,2.215 7.358,0.542 C -0.346,4.924 1.124,1.971 0,0"
             style="fill:#ffb888;fill-opacity:1;fill-rule:nonzero;stroke:none"
             id="path512" /></g><g
           id="g514"
           transform="translate(346.4014,319.5332)"><path
             d="m 0,0 c -1.124,-1.973 -4.419,-2.213 -7.359,-0.541 -2.938,1.674 -4.408,4.633 -3.284,6.607 1.124,1.973 4.42,2.216 7.36,0.538 C -0.346,4.93 1.125,1.975 0,0"
             style="fill:#ffb888;fill-opacity:1;fill-rule:nonzero;stroke:none"
             id="path516" /></g><g
           id="g518"
           transform="translate(424.5991,289.0449)"><path
             d="M 0,0 C 0,0 -0.074,0.211 -0.189,0.541 -0.303,0.873 -0.502,1.336 -0.826,1.814 -0.964,2.068 -1.174,2.297 -1.374,2.543 -1.565,2.807 -1.855,2.998 -2.092,3.24 -2.377,3.439 -2.64,3.674 -2.973,3.811 -3.268,4.01 -3.617,4.092 -3.942,4.221 -4.29,4.283 -4.633,4.393 -4.985,4.379 -5.341,4.414 -5.687,4.367 -6.031,4.354 -6.359,4.271 -6.701,4.248 -7.002,4.135 -7.307,4.037 -7.602,3.943 -7.855,3.813 -8.377,3.576 -8.799,3.295 -9.071,3.072 -9.36,2.848 -9.521,2.723 -9.521,2.723 c 0,0 0.087,0.191 0.246,0.523 0.171,0.332 0.486,0.797 0.998,1.211 0.242,0.232 0.547,0.422 0.888,0.6 0.328,0.211 0.729,0.316 1.131,0.449 0.418,0.072 0.85,0.185 1.309,0.144 0.45,0.028 0.91,-0.091 1.367,-0.171 C -3.153,5.299 -2.707,5.162 -2.337,4.9 -1.939,4.678 -1.629,4.357 -1.311,4.074 -1.035,3.752 -0.768,3.441 -0.594,3.1 -0.396,2.771 -0.242,2.445 -0.158,2.125 0.062,1.504 0.088,0.947 0.062,0.578 0.023,0.227 0,0 0,0"
             style="fill:#eaaa7f;fill-opacity:1;fill-rule:nonzero;stroke:none"
             id="path520" /></g><g
           id="g522"
           transform="translate(417.9839,293.4238)"><path
             d="M 0,0 C -0.049,-0.014 0.525,-0.447 0.871,-1.432 0.943,-1.68 1.032,-1.953 1.097,-2.248 1.117,-2.545 1.121,-2.867 1.106,-3.203 1.116,-3.543 1.023,-3.875 0.913,-4.213 0.78,-4.543 0.719,-4.914 0.484,-5.199 0.269,-5.494 0.064,-5.793 -0.162,-6.07 -0.426,-6.299 -0.708,-6.508 -0.98,-6.703 c -0.247,-0.231 -0.582,-0.301 -0.862,-0.414 -0.288,-0.09 -0.534,-0.24 -0.811,-0.225 -0.263,-0.023 -0.503,-0.027 -0.708,-0.029 -0.209,0.017 -0.457,-0.076 -0.566,0.117 -0.208,0.225 -0.326,0.352 -0.326,0.352 0,0 0.151,-0.034 0.423,-0.098 0.191,-0.031 0.527,0.258 0.947,0.393 0.207,0.058 0.383,0.263 0.593,0.382 0.192,0.163 0.444,0.245 0.613,0.461 0.183,0.194 0.368,0.387 0.577,0.565 l 0.461,0.672 c 0.204,0.205 0.243,0.49 0.362,0.732 0.119,0.246 0.234,0.492 0.253,0.758 0.034,0.264 0.123,0.514 0.161,0.762 -0.01,0.246 0.002,0.482 0.009,0.713 C 0.143,-0.676 -0.04,-0.012 0,0"
             style="fill:#eaaa7f;fill-opacity:1;fill-rule:nonzero;stroke:none"
             id="path524" /></g><g
           id="g526"
           transform="translate(326.1626,333.0962)"><path
             d="m 0,0 c 0,0 -0.074,0.174 -0.19,0.447 -0.145,0.275 -0.184,0.687 -0.467,1.097 -0.122,0.214 -0.26,0.434 -0.377,0.678 -0.1,0.245 -0.351,0.426 -0.505,0.668 -0.18,0.225 -0.329,0.485 -0.587,0.652 L -2.789,4.15 c -0.257,0.155 -0.517,0.307 -0.768,0.46 -0.243,0.183 -0.528,0.258 -0.795,0.371 -0.271,0.084 -0.516,0.262 -0.78,0.295 -0.264,0.049 -0.514,0.11 -0.753,0.175 -0.47,0.156 -0.878,0.085 -1.181,0.152 -0.309,0.043 -0.487,0.067 -0.487,0.067 0,0 0.16,0.072 0.438,0.199 0.284,0.081 0.71,0.357 1.251,0.354 0.271,0.022 0.572,0.039 0.888,0.042 0.325,0.032 0.64,-0.096 0.98,-0.163 0.337,-0.087 0.707,-0.141 1.016,-0.352 0.323,-0.186 0.651,-0.372 0.976,-0.555 0.27,-0.264 0.535,-0.53 0.801,-0.789 0.275,-0.247 0.432,-0.583 0.612,-0.88 C -0.428,3.219 -0.233,2.943 -0.165,2.63 -0.074,2.324 -0.016,2.033 0.044,1.77 0.203,0.687 -0.035,-0.011 0,0"
             style="fill:#eaaa7f;fill-opacity:1;fill-rule:nonzero;stroke:none"
             id="path528" /></g><g
           id="g530"
           transform="translate(325.0942,336.8999)"><path
             d="m 0,0 c 0,0 -0.154,-0.086 -0.376,-0.223 -0.227,-0.16 -0.583,-0.243 -0.915,-0.535 -0.178,-0.126 -0.354,-0.269 -0.551,-0.396 -0.211,-0.114 -0.343,-0.354 -0.541,-0.508 -0.18,-0.18 -0.39,-0.332 -0.518,-0.57 L -3.375,-2.86 -3.727,-3.563 C -3.867,-3.786 -3.919,-4.04 -4.001,-4.282 -4.058,-4.523 -4.202,-4.75 -4.219,-4.984 -4.247,-5.217 -4.29,-5.439 -4.341,-5.65 c -0.113,-0.425 -0.042,-0.785 -0.09,-1.057 -0.029,-0.28 -0.046,-0.437 -0.046,-0.437 0,0 -0.079,0.137 -0.216,0.37 -0.1,0.247 -0.375,0.604 -0.418,1.089 -0.045,0.235 -0.08,0.503 -0.104,0.787 -0.053,0.285 0.033,0.577 0.072,0.888 0.05,0.306 0.069,0.64 0.234,0.931 0.139,0.301 0.282,0.608 0.427,0.914 0.212,0.258 0.426,0.519 0.639,0.772 0.205,0.266 0.489,0.431 0.741,0.614 0.26,0.169 0.492,0.363 0.766,0.45 0.265,0.101 0.522,0.176 0.753,0.247 C -0.629,0.139 0.01,-0.028 0,0"
             style="fill:#eaaa7f;fill-opacity:1;fill-rule:nonzero;stroke:none"
             id="path532" /></g><g
           id="g534"
           transform="translate(359.4214,343.6108)"><path
             d="m 0,0 c -7.998,2.36 -16.424,-2.225 -18.782,-10.222 -2.36,-7.996 2.227,-16.424 10.225,-18.783 7.999,-2.36 16.424,2.226 18.784,10.222 C 12.586,-10.78 7.998,-2.356 0,0 m -8.928,-30.257 c -8.688,2.562 -13.672,11.715 -11.111,20.405 2.565,8.686 11.721,13.67 20.408,11.109 8.692,-2.563 13.674,-11.721 11.11,-20.407 -2.561,-8.689 -11.715,-13.67 -20.407,-11.107"
             style="fill:#a10e2f;fill-opacity:1;fill-rule:nonzero;stroke:none"
             id="path536" /></g><g
           id="g538"
           transform="translate(395.9116,325.4629)"><path
             d="m 0,0 c -7.997,2.359 -16.424,-2.225 -18.781,-10.221 -2.362,-8.002 2.228,-16.425 10.224,-18.787 7.996,-2.357 16.424,2.231 18.782,10.227 C 12.584,-10.785 7.998,-2.357 0,0 m -8.928,-30.26 c -8.689,2.563 -13.673,11.719 -11.111,20.406 C -17.475,-1.168 -8.32,3.817 0.369,1.256 9.059,-1.307 14.044,-10.463 11.48,-19.15 8.917,-27.838 -0.236,-32.824 -8.928,-30.26"
             style="fill:#a10e2f;fill-opacity:1;fill-rule:nonzero;stroke:none"
             id="path540" /></g><g
           id="g542"
           transform="translate(406.0288,304.5098)"><path
             d="M 0,0 0.381,1.369 18.043,-3.537 17.664,-4.91 Z"
             style="fill:#a10e2f;fill-opacity:1;fill-rule:nonzero;stroke:none"
             id="path544" /></g><g
           id="g546"
           transform="translate(338.8784,330.855)"><path
             d="M 0,0 -13.44,12.467 -12.473,13.51 0.97,1.041 Z"
             style="fill:#a10e2f;fill-opacity:1;fill-rule:nonzero;stroke:none"
             id="path548" /></g><g
           id="g550"
           transform="translate(375.3726,314.6074)"><path
             d="m 0,0 c 0.123,1.568 -0.254,2.738 -1.131,3.465 -2.157,1.803 -6.665,0.658 -6.71,0.642 l -0.333,1.266 c 0.21,0.057 5.201,1.338 7.879,-0.9 C 0.924,3.457 1.459,1.92 1.304,-0.105 Z"
             style="fill:#a10e2f;fill-opacity:1;fill-rule:nonzero;stroke:none"
             id="path552" /></g><g
           id="g554"
           transform="translate(413.1958,379.9009)"><path
             d="m 0,0 c -0.349,-0.339 -0.695,-0.7 -1.034,-1.095 0,0 0.535,0.155 1.034,1.095"
             style="fill:#383838;fill-opacity:1;fill-rule:nonzero;stroke:none"
             id="path556" /></g><g
           id="g558"
           transform="translate(408.8091,379.6719)"><path
             d="M 0,0 -0.452,-0.901 C -0.267,-0.853 -0.114,-0.514 0,0"
             style="fill:#383838;fill-opacity:1;fill-rule:nonzero;stroke:none"
             id="path560" /></g><g
           id="g562"
           transform="translate(440.4614,349.3325)"><path
             d="m 0,0 c -2.544,18.646 -24.052,29.915 -24.052,29.915 0,0 12.209,6.416 16.919,5.647 0,0 -10.188,7.06 -19.114,-2.702 -0.504,-1.038 -1.038,-1.209 -1.038,-1.209 0.341,0.432 0.688,0.83 1.038,1.209 0.666,1.384 1.285,4.308 0.521,10.465 l -4.909,-10.741 c -0.118,-0.563 -0.27,-0.94 -0.457,-0.992 l 0.457,0.992 c 0.351,1.675 0.395,5.039 -0.044,6.82 -1.843,7.467 -4.34,7.807 -4.34,7.807 l 2.924,-12.172 c 0,0 -7.758,10.593 -29.127,10.668 -21.37,0.075 -39.224,-5.258 -54.974,-33.962 0,0 3.811,-5.701 13.679,-13.121 5.696,6.868 15.113,15.622 15.919,16.017 l -8.791,-20.935 c 4.367,-2.769 9.535,-5.644 15.579,-8.457 3.373,6.024 10.047,17.529 14.659,21.738 0,0 -7.803,-16.157 -11.009,-23.381 12.282,-5.344 26.331,-15.372 45.981,-18.829 l 5.707,16.302 -0.476,-17.462 c 0,0 4.256,-1.209 9.233,-1.905 4.97,-0.695 11.708,-0.994 11.708,-0.994 0,0 6.213,23.156 4.007,39.282"
             style="fill:#232323;fill-opacity:1;fill-rule:nonzero;stroke:none"
             id="path564" /></g><g
           id="g566"
           transform="translate(334.7183,85.2012)"><path
             d="M 0,0 11.079,4.154 8.859,7.748 2.631,9.557 -2.215,6.926 -2.769,2.447 Z"
             style="fill:#423d30;fill-opacity:1;fill-rule:nonzero;stroke:none"
             id="path568" /></g><g
           id="g570"
           transform="translate(345.7964,90.6016)"><path
             d="M 0,0 11.078,4.156 8.858,7.75 2.631,9.557 -2.216,6.926 -2.77,2.445 Z"
             style="fill:#423d30;fill-opacity:1;fill-rule:nonzero;stroke:none"
             id="path572" /></g><g
           id="g574"
           transform="translate(390.4155,80.6152)"><path
             d="m 0,0 c 0,0 4.814,-10.572 1.906,-13.689 0,0 -36.858,-16.76 -46.59,-17.036 -9.733,-0.279 -1.389,0 -1.389,0 l -3.328,4.157 v 5.193 l 13.089,7.686 16.618,7.683 -0.208,4.777 z"
             style="fill:#423d30;fill-opacity:1;fill-rule:nonzero;stroke:none"
             id="path576" /></g><g
           id="g578"
           transform="translate(381.8774,86.8848)"><path
             d="M 0,0 C 0,0 14.737,-5.559 6.706,-12.76 -1.325,-19.959 -39.82,-33.529 -39.82,-33.529 l -2.769,-8.032 -14.555,18.965 7.354,12.33 33.678,5.539 10.633,6.37 z"
             style="fill:#373226;fill-opacity:1;fill-rule:nonzero;stroke:none"
             id="path580" /></g><g
           id="g582"
           transform="translate(370.6997,126.0566)"><path
             d="m 0,0 c 0,0 0.16,-20.359 -8.148,-23.684 -8.309,-3.322 -24.927,-14.396 -28.249,-21.322 -3.323,-6.926 1.401,-26.865 12.194,-23.541 10.792,3.322 26.854,9.416 31.562,20.772 4.708,11.351 16.06,33.767 16.06,33.767 L 17.329,0 Z"
             style="fill:#e5e4ba;fill-opacity:1;fill-rule:nonzero;stroke:none"
             id="path584" /></g><g
           id="g586"
           transform="translate(343.5776,92.9492)"><path
             d="M 0,0 C 0,0 -10.921,1.305 -8.159,-6.752 -5.397,-14.809 9.28,-33.639 17.312,-34.193 L 1.804,-41.211 c 0,0 -20.218,21.744 -20.218,34.459 0,0 9.272,16.994 18.414,6.752"
             style="fill:#373226;fill-opacity:1;fill-rule:nonzero;stroke:none"
             id="path588" /></g><g
           id="g590"
           transform="translate(309.2866,93.0469)"><path
             d="m 0,0 c 0,0 -7.939,-1.473 -8.493,-10.059 -0.554,-8.584 1.338,-44.982 12.74,-48.048 30.497,-8.206 32.904,9.127 32.904,9.127 L 14.7,-23.42 Z"
             style="fill:#373226;fill-opacity:1;fill-rule:nonzero;stroke:none"
             id="path592" /></g><g
           id="g594"
           transform="translate(303.3472,134.4141)"><path
             d="M 0,0 C 0,0 7.693,-19.857 6.862,-30.934 6.031,-42.01 3.663,-62.508 3.463,-69.428 c -0.201,-6.924 2.569,-21.601 13.092,-21.879 10.524,-0.277 24.647,-4.431 26.309,0 1.661,4.432 -4.316,16.651 -5.816,20.219 -1.012,2.408 -8.862,24.367 -9.138,32.123 -0.278,7.754 5.538,44.033 5.538,44.033 L 7.969,10.607 Z"
             style="fill:#e5e4ba;fill-opacity:1;fill-rule:nonzero;stroke:none"
             id="path596" /></g><g
           id="g598"
           transform="translate(300.9639,72.0117)"><path
             d="m 0,0 c 0,0 7.911,19.125 31.979,14.08 l 4.685,-15.633 c 0,0 -24.742,7.434 -34.99,-13.318 z"
             style="fill:#373226;fill-opacity:1;fill-rule:nonzero;stroke:none"
             id="path600" /></g><g
           id="g602"
           transform="translate(307.6104,53.1113)"><path
             d="m 0,0 c 0,0 7.042,19.297 31.111,14.252 l 6.385,-15.297 c 0,0 -25.574,6.926 -35.822,-13.828 z"
             style="fill:#373226;fill-opacity:1;fill-rule:nonzero;stroke:none"
             id="path604" /></g><g
           id="g606"
           transform="translate(354.6548,98.3516)"><path
             d="m 0,0 c 0,0 -10.92,1.303 -8.158,-6.754 2.761,-8.057 17.438,-26.889 25.47,-27.441 L 1.804,-41.211 c 0,0 -20.217,21.742 -20.217,34.457 0,0 9.271,16.994 18.413,6.754"
             style="fill:#373226;fill-opacity:1;fill-rule:nonzero;stroke:none"
             id="path608" /></g><g
           id="g610"
           transform="translate(377.228,174.5176)"><path
             d="m 0,0 c 0,0 -4.846,-29.91 -9,-33.648 -4.154,-3.741 -2.285,-8.307 0,-11.631 2.285,-3.325 15.162,-18.694 20.771,-18.073 5.608,0.625 26.17,5.61 27.001,6.856 C 39.604,-55.25 53.59,-8.102 37.665,5.4 21.741,18.902 6.301,3.322 0,0"
             style="fill:#083f4c;fill-opacity:1;fill-rule:nonzero;stroke:none"
             id="path612" /></g><g
           id="g614"
           transform="translate(291.9312,141.1465)"><path
             d="m 0,0 c 0,0 8.031,48.465 16.616,55.389 8.585,6.924 19.109,3.599 20.217,2.769 1.108,-0.83 9.692,-2.217 11.631,-2.769 C 50.403,54.834 60.381,10.248 58.301,1.109 58.301,1.109 21.325,-19.939 0,0"
             style="fill:#083f4c;fill-opacity:1;fill-rule:nonzero;stroke:none"
             id="path616" /></g><g
           id="g618"><g
             id="g620" /><g
             id="g760"><g
               clip-path="url(#clipPath624)"
               opacity="0.5"
               id="g758"><g
                 transform="translate(344.5815,573.1152)"
                 id="g628"><path
                   d="M 0,0 C 7.738,0 7.738,12 0,12 -7.738,12 -7.738,0 0,0"
                   style="fill:#29abe2;fill-opacity:1;fill-rule:nonzero;stroke:none"
                   id="path626" /></g><g
                 transform="translate(449.5815,627.1152)"
                 id="g632"><path
                   d="M 0,0 C 7.738,0 7.738,12 0,12 -7.738,12 -7.738,0 0,0"
                   style="fill:#29abe2;fill-opacity:1;fill-rule:nonzero;stroke:none"
                   id="path630" /></g><g
                 transform="translate(283.5815,643.1152)"
                 id="g636"><path
                   d="M 0,0 C 7.738,0 7.738,12 0,12 -7.738,12 -7.738,0 0,0"
                   style="fill:#29abe2;fill-opacity:1;fill-rule:nonzero;stroke:none"
                   id="path634" /></g><g
                 transform="translate(381.5815,501.1152)"
                 id="g640"><path
                   d="M 0,0 C 7.738,0 7.738,12 0,12 -7.738,12 -7.738,0 0,0"
                   style="fill:#29abe2;fill-opacity:1;fill-rule:nonzero;stroke:none"
                   id="path638" /></g><g
                 transform="translate(429.5815,603.1152)"
                 id="g644"><path
                   d="M 0,0 C 7.738,0 7.738,12 0,12 -7.738,12 -7.738,0 0,0"
                   style="fill:#29abe2;fill-opacity:1;fill-rule:nonzero;stroke:none"
                   id="path642" /></g><g
                 transform="translate(73.5815,579.1152)"
                 id="g648"><path
                   d="M 0,0 C 7.738,0 7.738,12 0,12 -7.738,12 -7.738,0 0,0"
                   style="fill:#29abe2;fill-opacity:1;fill-rule:nonzero;stroke:none"
                   id="path646" /></g><g
                 transform="translate(69.5815,643.1152)"
                 id="g652"><path
                   d="M 0,0 C 7.738,0 7.738,12 0,12 -7.738,12 -7.738,0 0,0"
                   style="fill:#29abe2;fill-opacity:1;fill-rule:nonzero;stroke:none"
                   id="path650" /></g><g
                 transform="translate(67.5815,397.1152)"
                 id="g656"><path
                   d="M 0,0 C 7.738,0 7.738,12 0,12 -7.738,12 -7.738,0 0,0"
                   style="fill:#29abe2;fill-opacity:1;fill-rule:nonzero;stroke:none"
                   id="path654" /></g><g
                 transform="translate(379.5815,437.1152)"
                 id="g660"><path
                   d="M 0,0 C 7.738,0 7.738,12 0,12 -7.738,12 -7.738,0 0,0"
                   style="fill:#29abe2;fill-opacity:1;fill-rule:nonzero;stroke:none"
                   id="path658" /></g><g
                 transform="translate(557.5815,685.1152)"
                 id="g664"><path
                   d="M 0,0 C 7.738,0 7.738,12 0,12 -7.738,12 -7.738,0 0,0"
                   style="fill:#29abe2;fill-opacity:1;fill-rule:nonzero;stroke:none"
                   id="path662" /></g><g
                 transform="translate(685.5815,477.1152)"
                 id="g668"><path
                   d="M 0,0 C 7.738,0 7.738,12 0,12 -7.738,12 -7.738,0 0,0"
                   style="fill:#29abe2;fill-opacity:1;fill-rule:nonzero;stroke:none"
                   id="path666" /></g><g
                 transform="translate(611.5815,343.1152)"
                 id="g672"><path
                   d="M 0,0 C 7.738,0 7.738,12 0,12 -7.738,12 -7.738,0 0,0"
                   style="fill:#29abe2;fill-opacity:1;fill-rule:nonzero;stroke:none"
                   id="path670" /></g><g
                 transform="translate(567.5815,307.1152)"
                 id="g676"><path
                   d="M 0,0 C 7.738,0 7.738,12 0,12 -7.738,12 -7.738,0 0,0"
                   style="fill:#29abe2;fill-opacity:1;fill-rule:nonzero;stroke:none"
                   id="path674" /></g><g
                 transform="translate(681.5815,267.1152)"
                 id="g680"><path
                   d="M 0,0 C 7.738,0 7.738,12 0,12 -7.738,12 -7.738,0 0,0"
                   style="fill:#29abe2;fill-opacity:1;fill-rule:nonzero;stroke:none"
                   id="path678" /></g><g
                 transform="translate(343.5815,643.1152)"
                 id="g684"><path
                   d="M 0,0 C 7.738,0 7.738,12 0,12 -7.738,12 -7.738,0 0,0"
                   style="fill:#29abe2;fill-opacity:1;fill-rule:nonzero;stroke:none"
                   id="path682" /></g><g
                 transform="translate(215.5815,684.1152)"
                 id="g688"><path
                   d="M 0,0 C 3.869,0 3.869,6 0,6 -3.869,6 -3.869,0 0,0"
                   style="fill:#29abe2;fill-opacity:1;fill-rule:nonzero;stroke:none"
                   id="path686" /></g><g
                 transform="translate(93.5815,690.1152)"
                 id="g692"><path
                   d="M 0,0 C 3.869,0 3.869,6 0,6 -3.869,6 -3.869,0 0,0"
                   style="fill:#29abe2;fill-opacity:1;fill-rule:nonzero;stroke:none"
                   id="path690" /></g><g
                 transform="translate(39.5815,570.1152)"
                 id="g696"><path
                   d="M 0,0 C 3.869,0 3.869,6 0,6 -3.869,6 -3.869,0 0,0"
                   style="fill:#29abe2;fill-opacity:1;fill-rule:nonzero;stroke:none"
                   id="path694" /></g><g
                 transform="translate(83.5815,472.1152)"
                 id="g700"><path
                   d="M 0,0 C 3.869,0 3.869,6 0,6 -3.869,6 -3.869,0 0,0"
                   style="fill:#29abe2;fill-opacity:1;fill-rule:nonzero;stroke:none"
                   id="path698" /></g><g
                 transform="translate(37.5815,442.1152)"
                 id="g704"><path
                   d="M 0,0 C 3.869,0 3.869,6 0,6 -3.869,6 -3.869,0 0,0"
                   style="fill:#29abe2;fill-opacity:1;fill-rule:nonzero;stroke:none"
                   id="path702" /></g><g
                 transform="translate(127.5815,364.1152)"
                 id="g708"><path
                   d="M 0,0 C 3.869,0 3.869,6 0,6 -3.869,6 -3.869,0 0,0"
                   style="fill:#29abe2;fill-opacity:1;fill-rule:nonzero;stroke:none"
                   id="path706" /></g><g
                 transform="translate(315.5815,414.1152)"
                 id="g712"><path
                   d="M 0,0 C 3.869,0 3.869,6 0,6 -3.869,6 -3.869,0 0,0"
                   style="fill:#29abe2;fill-opacity:1;fill-rule:nonzero;stroke:none"
                   id="path710" /></g><g
                 transform="translate(329.5815,486.1152)"
                 id="g716"><path
                   d="M 0,0 C 3.869,0 3.869,6 0,6 -3.869,6 -3.869,0 0,0"
                   style="fill:#29abe2;fill-opacity:1;fill-rule:nonzero;stroke:none"
                   id="path714" /></g><g
                 transform="translate(417.5815,550.1152)"
                 id="g720"><path
                   d="M 0,0 C 3.869,0 3.869,6 0,6 -3.869,6 -3.869,0 0,0"
                   style="fill:#29abe2;fill-opacity:1;fill-rule:nonzero;stroke:none"
                   id="path718" /></g><g
                 transform="translate(435.5815,680.1152)"
                 id="g724"><path
                   d="M 0,0 C 3.869,0 3.869,6 0,6 -3.869,6 -3.869,0 0,0"
                   style="fill:#29abe2;fill-opacity:1;fill-rule:nonzero;stroke:none"
                   id="path722" /></g><g
                 transform="translate(511.5815,658.1152)"
                 id="g728"><path
                   d="M 0,0 C 3.869,0 3.869,6 0,6 -3.869,6 -3.869,0 0,0"
                   style="fill:#29abe2;fill-opacity:1;fill-rule:nonzero;stroke:none"
                   id="path726" /></g><g
                 transform="translate(667.5815,670.1152)"
                 id="g732"><path
                   d="M 0,0 C 3.869,0 3.869,6 0,6 -3.869,6 -3.869,0 0,0"
                   style="fill:#29abe2;fill-opacity:1;fill-rule:nonzero;stroke:none"
                   id="path730" /></g><g
                 transform="translate(691.5815,578.1152)"
                 id="g736"><path
                   d="M 0,0 C 3.869,0 3.869,6 0,6 -3.869,6 -3.869,0 0,0"
                   style="fill:#29abe2;fill-opacity:1;fill-rule:nonzero;stroke:none"
                   id="path734" /></g><g
                 transform="translate(655.5815,352.1152)"
                 id="g740"><path
                   d="M 0,0 C 3.869,0 3.869,6 0,6 -3.869,6 -3.869,0 0,0"
                   style="fill:#29abe2;fill-opacity:1;fill-rule:nonzero;stroke:none"
                   id="path738" /></g><g
                 transform="translate(537.5815,294.1152)"
                 id="g744"><path
                   d="M 0,0 C 3.869,0 3.869,6 0,6 -3.869,6 -3.869,0 0,0"
                   style="fill:#29abe2;fill-opacity:1;fill-rule:nonzero;stroke:none"
                   id="path742" /></g><g
                 transform="translate(425.5815,400.1152)"
                 id="g748"><path
                   d="M 0,0 C 3.869,0 3.869,6 0,6 -3.869,6 -3.869,0 0,0"
                   style="fill:#29abe2;fill-opacity:1;fill-rule:nonzero;stroke:none"
                   id="path746" /></g><g
                 transform="translate(111.5815,348.1152)"
                 id="g752"><path
                   d="M 0,0 C 3.869,0 3.869,6 0,6 -3.869,6 -3.869,0 0,0"
                   style="fill:#29abe2;fill-opacity:1;fill-rule:nonzero;stroke:none"
                   id="path750" /></g><g
                 transform="translate(57.5815,290.1152)"
                 id="g756"><path
                   d="M 0,0 C 3.869,0 3.869,6 0,6 -3.869,6 -3.869,0 0,0"
                   style="fill:#29abe2;fill-opacity:1;fill-rule:nonzero;stroke:none"
                   id="path754" /></g></g></g></g></g></g></g></svg>
